<svg width="369" height="323" viewBox="0 0 369 323" fill="none" xmlns="http://www.w3.org/2000/svg">
<rect x="29.25" y="30.25" width="239.5" height="239.5" rx="21.75" stroke="white" stroke-width="0.5"/>
<rect x="94.25" y="95.25" width="109.5" height="109.5" rx="54.75" stroke="white" stroke-width="0.5"/>
<rect x="46.25" y="13.25" width="205.5" height="272.5" rx="21.75" stroke="white" stroke-width="0.5"/>
<rect x="12.75" y="252.25" width="205.5" height="272.5" rx="21.75" transform="rotate(-90 12.75 252.25)" stroke="white" stroke-width="0.5"/>
<line x1="7.40184" y1="291.245" x2="290.245" y2="8.4019" stroke="white" stroke-width="0.5"/>
<line x1="8.67678" y1="7.82322" x2="291.519" y2="290.666" stroke="white" stroke-width="0.5"/>
<line y1="148.75" x2="300" y2="148.75" stroke="white" stroke-width="0.5"/>
<line y1="110.75" x2="300" y2="110.75" stroke="white" stroke-width="0.5"/>
<line y1="187.75" x2="300" y2="187.75" stroke="white" stroke-width="0.5"/>
<line x1="149.75" y1="300" x2="149.75" stroke="white" stroke-width="0.5"/>
<line x1="187.736" y1="300" x2="187.736" stroke="white" stroke-width="0.5"/>
<line x1="110.25" y1="300" x2="110.25" stroke="white" stroke-width="0.5"/>
<circle cx="259" cy="213" r="110" fill="url(#paint0_linear_20_384)" fill-opacity="0.93"/>
<path d="M41 104.5L146.922 27.4204C147.268 27.1689 147.735 27.1648 148.085 27.4102L201.176 64.6459C201.838 65.1107 202.75 64.6366 202.75 63.8272V44C202.75 43.4477 203.198 43 203.75 43H223.5C224.052 43 224.5 43.4477 224.5 44V80.4844C224.5 80.8104 224.659 81.116 224.926 81.3032L258 104.5M167 217V152.5C167 151.948 166.552 151.5 166 151.5H130C129.448 151.5 129 151.948 129 152.5V217M167 217H129M167 217H227.018C227.563 217 228.008 216.563 228.018 216.019L229.99 109.531C229.996 109.199 229.837 108.886 229.565 108.695L148.086 51.4119C147.736 51.1656 147.267 51.1697 146.921 51.4221L68.4106 108.7C68.1526 108.889 68 109.189 68 109.508V216C68 216.552 68.4477 217 69 217H129" stroke="white" stroke-width="12" stroke-miterlimit="3.62796" stroke-linecap="round" stroke-linejoin="bevel"/>
<mask id="mask0_20_384" style="mask-type:alpha" maskUnits="userSpaceOnUse" x="149" y="103" width="220" height="220">
<circle cx="259" cy="213" r="109.5" fill="url(#paint1_linear_20_384)" fill-opacity="0.93" stroke="black"/>
</mask>
<g mask="url(#mask0_20_384)">
<path d="M41 104.5L146.922 27.4204C147.268 27.1689 147.735 27.1648 148.085 27.4102L201.176 64.6459C201.838 65.1107 202.75 64.6366 202.75 63.8272V44C202.75 43.4477 203.198 43 203.75 43H223.5C224.052 43 224.5 43.4477 224.5 44V80.4844C224.5 80.8104 224.659 81.116 224.926 81.3032L258 104.5M167 217V152.5C167 151.948 166.552 151.5 166 151.5H130C129.448 151.5 129 151.948 129 152.5V217M167 217H129M167 217H227.018C227.563 217 228.008 216.563 228.018 216.019L229.99 109.531C229.996 109.199 229.837 108.886 229.565 108.695L148.086 51.4119C147.736 51.1656 147.267 51.1697 146.921 51.4221L68.4106 108.7C68.1526 108.889 68 109.189 68 109.508V216C68 216.552 68.4477 217 69 217H129" stroke="black" stroke-width="12" stroke-miterlimit="3.62796" stroke-linecap="round" stroke-linejoin="bevel"/>
</g>
<defs>
<linearGradient id="paint0_linear_20_384" x1="259" y1="103" x2="259" y2="323" gradientUnits="userSpaceOnUse">
<stop stop-color="#FF4545"/>
<stop offset="1" stop-color="#737373"/>
</linearGradient>
<linearGradient id="paint1_linear_20_384" x1="259" y1="103" x2="259" y2="323" gradientUnits="userSpaceOnUse">
<stop stop-color="#FF4545"/>
<stop offset="1" stop-color="#737373"/>
</linearGradient>
</defs>
</svg>
