<svg width="512" height="512" viewBox="0 0 512 512" fill="none" xmlns="http://www.w3.org/2000/svg">
<rect width="512" height="512" rx="115" fill="url(#paint0_linear_101_218)"/>
<path fill-rule="evenodd" clip-rule="evenodd" d="M202 64H255.146V46H256V64H308.146V46H309V64H361.453C378.108 64 392.227 74.8449 397.142 89.8574C402.43 91.5883 407.2 94.4613 411.162 98.1855L451.986 57.3623L452.59 57.9658L411.777 98.7773C415.823 102.756 418.97 107.643 420.889 113.11C435.513 118.242 446 132.169 446 148.547V200.146H466V201H446V254.146H466V255H446V308.146H466V309H446V361.453L445.987 362.423C445.59 378.113 435.566 391.407 421.603 396.629C420.033 402.217 417.201 407.277 413.436 411.483L454.483 452.531L453.88 453.135L412.858 412.113C408.402 416.87 402.724 420.466 396.322 422.399C390.786 436.23 377.261 446 361.453 446H309V466H308.146V446H256V466H255.146V446H202V466H201.146V446H147.547L146.577 445.987C131.049 445.594 117.864 435.773 112.531 422.034C106.894 420.131 101.857 416.927 97.7764 412.778L56.6104 453.945L56.0068 453.342L97.1855 412.162C93.2014 407.924 90.1913 402.76 88.5117 397.027C73.9697 392.109 63.4209 378.527 63.0127 362.423L63 361.453V309H46V308.146H63V255H46V254.146H63V201H46V200.146H63V148.547C63 131.749 74.0312 117.529 89.2441 112.732C91.2804 107.124 94.6141 102.138 98.8838 98.1387L57.9004 57.1553L58.5039 56.5518L99.5146 97.5625C103.049 94.3987 107.187 91.8948 111.733 90.2441C116.437 75.325 130.204 64.4277 146.577 64.0127L147.547 64H201.146V46H202V64ZM202 445.146H255.146V424H202V445.146ZM256 445.146H308.146V424H256V445.146ZM395.277 422.698C392.146 423.545 388.853 424 385.453 424H309V445.146H361.453C376.666 445.146 389.716 435.888 395.277 422.698ZM113.589 422.374C119.072 435.736 132.21 445.146 147.547 445.146H201.146V424H124.547L123.577 423.987C120.11 423.899 116.761 423.34 113.589 422.374ZM202 423.146H255.146V399H202V423.146ZM256 423.146H308.146V399H256V423.146ZM309 423.146H385.453C389.002 423.146 392.433 422.64 395.68 421.7C397.271 417.591 398.146 413.124 398.146 408.453V399H309V423.146ZM110.854 399.702V408.453C110.854 412.992 111.68 417.338 113.187 421.351C116.764 422.514 120.581 423.146 124.547 423.146H201.146V399H111.556L110.854 399.702ZM399 408.453C399 412.997 398.192 417.352 396.714 421.383C402.718 419.449 408.046 416.01 412.255 411.51L399.745 399H399V408.453ZM98.3809 412.174C102.21 416.069 106.902 419.113 112.148 420.996C110.758 417.074 110 412.852 110 408.453V400.556L98.3809 412.174ZM89.4971 397.348C91.1645 402.718 94.0346 407.559 97.7891 411.559L110 399.349V399H100.547C96.7012 399 92.9905 398.422 89.4971 397.348ZM420.609 396.985C416.796 398.29 412.708 399 408.453 399H400.952L412.831 410.879C416.363 406.923 419.05 402.198 420.609 396.985ZM87.8535 386.453C87.8535 389.885 88.3258 393.207 89.207 396.357C92.7784 397.517 96.589 398.146 100.547 398.146H110V309H87.8535V386.453ZM110.854 398.146H111.202L199.733 309.614C199.536 309.411 199.339 309.206 199.144 309H110.854V398.146ZM202 398.146H255.146V332.999C255.098 332.999 255.049 333 255 333C234.463 333 215.805 324.959 202 311.855V398.146ZM308.146 311.717C294.551 324.689 276.214 332.736 256 332.993V398.146H308.146V311.717ZM310.312 309.566C309.88 310.012 309.443 310.453 309 310.889V398.146H398.146V397.4L310.312 309.566ZM399 397.047L400.099 398.146H408.453C412.82 398.146 417.009 397.381 420.894 395.981C421.709 392.943 422.146 389.749 422.146 386.453V309H399V397.047ZM112.409 398.146H201.146V311.033C200.873 310.765 200.601 310.496 200.331 310.224L112.409 398.146ZM398.146 396.193V309H310.952L398.146 396.193ZM63.8535 361.453C63.8535 377.398 74.0253 390.966 88.2334 396.026C87.4298 392.97 87 389.762 87 386.453V309H63.8535V361.453ZM423 386.453C423 389.613 422.607 392.682 421.872 395.614C435.5 390.257 445.146 376.982 445.146 361.453V309H423V386.453ZM202 310.672C215.708 323.963 234.398 332.146 255 332.146C255.049 332.146 255.098 332.146 255.146 332.146V309H202V310.672ZM256 332.14C276.279 331.879 294.647 323.69 308.146 310.531V309H256V332.14ZM200.935 309.62C201.005 309.691 201.076 309.762 201.146 309.833V309.408L200.935 309.62ZM309 309.686C309.226 309.459 309.449 309.23 309.672 309H309V309.686ZM200.337 309.011L200.348 309H200.326C200.33 309.004 200.333 309.007 200.337 309.011ZM63.8535 308.146H87V255H63.8535V308.146ZM87.8535 308.146H110V255H87.8535V308.146ZM110.854 308.146H198.347C185.715 294.43 178 276.116 178 256C178 255.666 178.002 255.333 178.006 255H110.854V308.146ZM202.408 308.146H255.146V255.407L202.408 308.146ZM256 308.146H308.146V307.401L256 255.255V308.146ZM309 307.048L310.099 308.146H310.486C323.297 294.521 331.146 276.178 331.146 256C331.146 255.666 331.145 255.333 331.141 255H309V307.048ZM331.994 255C331.998 255.333 332 255.666 332 256C332 276.116 324.285 294.43 311.653 308.146H398.146V255H331.994ZM399 308.146H422.146V255H399V308.146ZM423 308.146H445.146V255H423V308.146ZM178.859 255C178.855 255.333 178.854 255.666 178.854 256C178.854 276.178 186.703 294.521 199.513 308.146H201.146V255H178.859ZM202 307.347L254.347 255H202V307.347ZM308.146 306.194V255H256.952L308.146 306.194ZM63.8535 254.146H87V201H63.8535V254.146ZM87.8535 254.146H110V201H87.8535V254.146ZM110.854 254.146H178.022C178.514 233.338 187.26 214.574 201.112 201H110.854V254.146ZM202 201.325V254.146H254.892L202.036 201.291C202.024 201.303 202.012 201.314 202 201.325ZM256.407 254.146H308.146V202.407L256.407 254.146ZM309 254.146H331.124C330.641 233.935 322.283 215.673 309 202.313V254.146ZM309.224 201.331C322.881 214.878 331.49 233.507 331.978 254.146H398.146V201H309.555L309.224 201.331ZM399 254.146H422.146V201H399V254.146ZM423 254.146H445.146V201H423V254.146ZM201.146 202.166C187.778 215.539 179.361 233.86 178.876 254.146H201.146V202.166ZM256 253.347L308.011 201.337C307.895 201.224 307.778 201.112 307.661 201H256V253.347ZM255.146 253.194V201H202.952L255.146 253.194ZM88.8926 113.743C74.3405 118.614 63.8535 132.356 63.8535 148.547V200.146H87V125.547C87 121.423 87.6644 117.455 88.8926 113.743ZM100.547 111.854C96.8463 111.854 93.2742 112.403 89.9062 113.422C88.5777 117.218 87.8535 121.298 87.8535 125.547V200.146H110V111.854H100.547ZM110.854 200.146H200.892L112.599 111.854H110.854V200.146ZM255 179.854C235.015 179.854 216.829 187.553 203.245 200.146H255.146V179.854C255.098 179.853 255.049 179.854 255 179.854ZM256 200.146H306.755C293.397 187.763 275.591 180.112 256 179.859V200.146ZM256 179.006C276.143 179.262 294.422 187.254 308.003 200.146H308.146V111.854H256V179.006ZM309 200.146H309.201L397.495 111.854H309V200.146ZM310.408 200.146H398.146V112.408L310.408 200.146ZM399 200.146H422.146V125.547C422.146 121.431 421.468 117.474 420.219 113.78C416.525 112.531 412.568 111.854 408.453 111.854H399V200.146ZM421.233 114.143C422.379 117.739 423 121.57 423 125.547V200.146H445.146V148.547C445.146 132.777 435.197 119.332 421.233 114.143ZM202 200.048L202.049 200.097C215.849 187.021 234.488 179 255 179C255.049 179 255.098 179 255.146 179V111.854H202V200.048ZM201.146 199.194V111.854H113.806L201.146 199.194ZM399.556 111H408.453C412.429 111 416.26 111.62 419.856 112.766C417.964 107.674 414.974 103.117 411.174 99.3809L399.556 111ZM99.4893 98.7441C95.4602 102.512 92.282 107.178 90.2725 112.423C93.5378 111.496 96.9844 111 100.547 111H110V109.255L99.4893 98.7441ZM110.854 111H111.745L110.854 110.108V111ZM202 111H255.146V88.8535H202V111ZM256 111H308.146V88.8535H256V111ZM309 111H398.146V101.547C398.146 97.7101 397.556 94.0114 396.464 90.5352C392.988 89.4431 389.289 88.8535 385.453 88.8535H309V111ZM124.547 88.8535C120.298 88.8535 116.218 89.5777 112.422 90.9062C111.403 94.2742 110.854 97.8463 110.854 101.547V108.901L112.952 111H201.146V88.8535H124.547ZM397.454 90.8633C398.458 94.2498 399 97.8349 399 101.547V110.349L410.559 98.7891C406.835 95.2944 402.383 92.5686 397.454 90.8633ZM111.424 91.2725C107.232 92.8785 103.41 95.2309 100.12 98.168L110 108.048V101.547C110 97.9843 110.497 94.5379 111.424 91.2725ZM147.547 64.8535C131.355 64.8535 117.614 75.341 112.743 89.8936C116.163 88.762 119.801 88.1084 123.577 88.0127L124.547 88H201.146V64.8535H147.547ZM309 88H385.453C389.165 88 392.75 88.5417 396.136 89.5449C391.164 75.1742 377.515 64.8535 361.453 64.8535H309V88ZM202 88H255.146V64.8535H202V88ZM256 88H308.146V64.8535H256V88Z" fill="white"/>
<path d="M259 342C258.975 342.217 258.95 342.434 258.925 342.65C258.475 346.55 258.025 350.45 257.575 354.35C257.55 354.566 257.525 354.783 257.5 355C257.449 355.446 257.397 355.891 257.346 356.337H254.654C254.603 355.891 254.551 355.446 254.5 355C254.475 354.783 254.45 354.566 254.425 354.35C253.975 350.45 253.525 346.55 253.075 342.65C253.05 342.434 253.025 342.217 253 342C252.885 341 252.77 340 252.654 339H259.346C259.23 340 259.115 341 259 342Z" fill="white"/>
<path fill-rule="evenodd" clip-rule="evenodd" d="M255.5 238C264.613 238 272 245.387 272 254.5C272 263.613 264.613 271 255.5 271C246.387 271 239 263.613 239 254.5C239 245.387 246.387 238 255.5 238ZM255.5 247C251.358 247 248 250.358 248 254.5C248 258.642 251.358 262 255.5 262C259.642 262 263 258.642 263 254.5C263 250.358 259.642 247 255.5 247Z" fill="white"/>
<path fill-rule="evenodd" clip-rule="evenodd" d="M256.425 182.3C258.606 194.103 260.787 205.907 262.968 217.711L308.604 192.627L308.809 192.52C313.119 190.375 317.741 195.062 315.413 199.381L290.27 246.031C302.081 248.214 313.893 250.397 325.705 252.58C326.472 252.722 327.238 252.863 328.005 253.005C327.238 253.147 326.472 253.288 325.705 253.43C311.905 255.98 298.105 258.53 284.305 261.08C283.538 261.222 282.771 261.363 282.005 261.505V261.367L275.666 273.129C275.194 274.004 274.472 274.719 273.593 275.182L264.438 280H264.5C264.358 280.767 264.217 281.533 264.075 282.3C261.525 296.1 258.975 309.9 256.425 323.7C256.283 324.467 256.142 325.233 256 326C255.858 325.233 255.717 324.467 255.575 323.7C253.384 311.842 251.192 299.983 249.001 288.124L200.836 313.476C196.437 315.791 191.721 310.964 194.138 306.62L220.052 260.035C208.136 257.833 196.22 255.631 184.305 253.43C183.538 253.288 182.771 253.147 182.005 253.005C182.771 252.863 183.538 252.722 184.305 252.58C198.105 250.03 211.905 247.48 225.705 244.93C226.472 244.788 227.238 244.647 228.005 244.505V245.738L234.364 234.307C234.821 233.485 235.501 232.809 236.325 232.356L247.89 226H247.5C247.642 225.233 247.783 224.467 247.925 223.7C250.475 209.9 253.025 196.1 255.575 182.3C255.717 181.533 255.858 180.767 256 180C256.142 180.767 256.283 181.533 256.425 182.3ZM264.499 225.997L264.5 226H264.496L240.935 238.951L206.028 301.701L269.058 268.527L303.547 204.534L264.499 225.997Z" fill="white"/>
<path d="M169 256.846C168 256.73 167 256.615 166 256.5C165.783 256.475 165.566 256.45 165.35 256.425C161.45 255.975 157.55 255.525 153.65 255.075C153.434 255.05 153.217 255.025 153 255C152.554 254.949 152.109 254.897 151.663 254.846V252.154C152.109 252.103 152.554 252.051 153 252C153.217 251.975 153.434 251.95 153.65 251.925C157.55 251.475 161.45 251.025 165.35 250.575C165.566 250.55 165.783 250.525 166 250.5C167 250.385 168 250.27 169 250.154V256.846Z" fill="white"/>
<path d="M344 250C344.217 250.025 344.434 250.05 344.65 250.075C348.55 250.525 352.45 250.975 356.35 251.425C356.566 251.45 356.783 251.475 357 251.5C357.446 251.551 357.891 251.603 358.337 251.654V254.346C357.891 254.397 357.446 254.449 357 254.5C356.783 254.525 356.566 254.55 356.35 254.575C352.45 255.025 348.55 255.475 344.65 255.925C344.434 255.95 344.217 255.975 344 256C343 256.115 342 256.23 341 256.346V249.654C342 249.77 343 249.885 344 250Z" fill="white"/>
<path d="M258.836 159.219H258.969V150H262.828V166H259.547L253.18 156.766H253.078V166H249.211V150H252.539L258.836 159.219Z" fill="white"/>
<path fill-rule="evenodd" clip-rule="evenodd" d="M255.5 133C320.946 133 374 186.054 374 251.5C374 316.946 320.946 370 255.5 370C190.054 370 137 316.946 137 251.5C137 186.054 190.054 133 255.5 133ZM255.5 145C196.682 145 149 192.682 149 251.5C149 310.318 196.682 358 255.5 358C314.318 358 362 310.318 362 251.5C362 192.682 314.318 145 255.5 145Z" fill="white"/>
<circle cx="365" cy="318" r="110" fill="url(#paint1_linear_101_218)" fill-opacity="0.93"/>
<mask id="mask0_101_218" style="mask-type:alpha" maskUnits="userSpaceOnUse" x="255" y="208" width="220" height="220">
<circle cx="365" cy="318" r="109.5" fill="url(#paint2_linear_101_218)" fill-opacity="0.93" stroke="black"/>
</mask>
<g mask="url(#mask0_101_218)">
<circle cx="255.5" cy="251.5" r="112.5" stroke="black" stroke-width="12"/>
<circle cx="255.5" cy="254.5" r="12" stroke="black" stroke-width="9"/>
<path d="M271.73 271.642L198.973 309.935C198.093 310.398 197.15 309.433 197.633 308.564L237.86 236.252C237.951 236.087 238.087 235.952 238.252 235.861L310.53 196.132C311.404 195.652 312.365 196.606 311.892 197.483L272.145 271.232C272.05 271.407 271.906 271.549 271.73 271.642Z" fill="black" stroke="black" stroke-width="8"/>
<path d="M256 326C256.142 325.233 256.283 324.467 256.425 323.7C258.975 309.9 261.525 296.1 264.075 282.3C264.217 281.533 264.358 280.767 264.5 280C258.833 280 253.167 280 247.5 280C247.642 280.767 247.783 281.533 247.925 282.3C250.475 296.1 253.025 309.9 255.575 323.7C255.717 324.467 255.858 325.233 256 326Z" fill="black"/>
<path d="M256 180C256.142 180.767 256.283 181.533 256.425 182.3C258.975 196.1 261.525 209.9 264.075 223.7C264.217 224.467 264.358 225.233 264.5 226C258.833 226 253.167 226 247.5 226C247.642 225.233 247.783 224.467 247.925 223.7C250.475 209.9 253.025 196.1 255.575 182.3C255.717 181.533 255.858 180.767 256 180Z" fill="black"/>
<path d="M328.005 253.005C327.238 252.863 326.472 252.722 325.705 252.58C311.905 250.03 298.105 247.48 284.305 244.93C283.538 244.788 282.772 244.647 282.005 244.505C282.005 250.172 282.005 255.838 282.005 261.505C282.772 261.363 283.538 261.222 284.305 261.08C298.105 258.53 311.905 255.98 325.705 253.43C326.472 253.288 327.238 253.147 328.005 253.005Z" fill="black"/>
<path d="M344 256C343 256.115 342 256.231 341 256.346C341 254.115 341 251.885 341 249.654C342 249.769 343 249.885 344 250C344.217 250.025 344.433 250.05 344.65 250.075C348.55 250.525 352.45 250.975 356.35 251.425C356.567 251.45 356.783 251.475 357 251.5C357.446 251.551 357.891 251.603 358.337 251.654C358.337 252.551 358.337 253.449 358.337 254.346C357.891 254.397 357.446 254.449 357 254.5C356.783 254.525 356.567 254.55 356.35 254.575C352.45 255.025 348.55 255.475 344.65 255.925C344.433 255.95 344.217 255.975 344 256Z" fill="black"/>
<path d="M259 342C259.115 341 259.231 340 259.346 339C257.115 339 254.885 339 252.654 339C252.769 340 252.885 341 253 342C253.025 342.217 253.05 342.433 253.075 342.65C253.525 346.55 253.975 350.45 254.425 354.35C254.45 354.567 254.475 354.783 254.5 355C254.551 355.446 254.603 355.891 254.654 356.337C255.551 356.337 256.449 356.337 257.346 356.337C257.397 355.891 257.449 355.446 257.5 355C257.525 354.783 257.55 354.567 257.575 354.35C258.025 350.45 258.475 346.55 258.925 342.65C258.95 342.433 258.975 342.217 259 342Z" fill="black"/>
</g>
<defs>
<linearGradient id="paint0_linear_101_218" x1="256" y1="0" x2="256" y2="512" gradientUnits="userSpaceOnUse">
<stop stop-color="#1F1F1F"/>
<stop offset="1" stop-color="#141414"/>
</linearGradient>
<linearGradient id="paint1_linear_101_218" x1="365" y1="208" x2="365" y2="428" gradientUnits="userSpaceOnUse">
<stop stop-color="#FF4545"/>
<stop offset="1" stop-color="#737373"/>
</linearGradient>
<linearGradient id="paint2_linear_101_218" x1="365" y1="208" x2="365" y2="428" gradientUnits="userSpaceOnUse">
<stop stop-color="#FF4545"/>
<stop offset="1" stop-color="#737373"/>
</linearGradient>
</defs>
</svg>
